<svg width="156" height="156" viewBox="0 0 156 156" fill="none" xmlns="http://www.w3.org/2000/svg">
<path d="M78 156C75.8778 156 73.7755 155.915 71.6963 155.749L106.655 95.1983C106.753 95.0352 106.85 94.8708 106.945 94.7054C114.35 81.8795 112.29 66.1862 102.932 55.7143H152.77C154.871 62.7756 156 70.2561 156 78C156 121.078 121.078 156 78 156ZM79.0101 44.5714C67.115 44.2207 55.4125 50.2484 49.0453 61.2768C47.8726 63.3079 46.9374 65.4109 46.2308 67.5538L21.3227 24.4117C35.541 9.37898 55.6752 0 78 0C109.115 0 135.975 18.2191 148.494 44.5714H79.0101ZM13.8067 33.6793L48.9213 94.4996C51.7604 99.5105 55.9326 103.853 61.281 106.941C68.6936 111.221 77.064 112.339 84.8307 110.714L59.903 153.89C25.5515 145.729 0 114.848 0 78C0 61.5372 5.10019 46.2657 13.8067 33.6793ZM100.286 78C100.286 90.3081 90.3081 100.286 78 100.286C65.6919 100.286 55.7143 90.3081 55.7143 78C55.7143 65.6919 65.6919 55.7143 78 55.7143C90.3081 55.7143 100.286 65.6919 100.286 78Z" fill="white"/>
</svg>
